<?xml version="1.0" encoding="UTF-8" standalone="no"?>
<!-- Created with Inkscape (http://www.inkscape.org/) -->
<svg xmlns:rdf="http://www.w3.org/1999/02/22-rdf-syntax-ns#" xmlns="http://www.w3.org/2000/svg" xmlns:cc="http://web.resource.org/cc/" xmlns:dc="http://purl.org/dc/elements/1.1/" xmlns:svg="http://www.w3.org/2000/svg" xmlns:inkscape="http://www.inkscape.org/namespaces/inkscape" xmlns:sodipodi="http://sodipodi.sourceforge.net/DTD/sodipodi-0.dtd" xmlns:ns1="http://sozi.baierouge.fr" xmlns:xlink="http://www.w3.org/1999/xlink" id="svg3023" viewBox="0 0 1043.3 885.83" version="1.1" inkscape:version="0.91 r13725">
  <title id="title3095">CM Isometric Home</title>
  <g id="layer1" transform="translate(149.61 -83.268)">
    <g id="g4254" transform="translate(-1499.8 -1713.2)">
      <path id="path3804" style="fill:#babdb6" d="m1411.6 2434.3 429.6 248.03v-354.33l-214.8-248.03h-214.8v354.33z"/>
      <path id="path3806" style="fill:#d3d7cf" d="m1841.2 2328 490.98-283.46v354.33l-490.98 283.46v-354.33z"/>
      <path id="path3824" style="fill:#3465a4" d="m2178.7 2203.9-76.719 44.281v88.594l76.719-44.281v-88.594zm-92.062 53.156-92.063 53.156v88.562l92.063-53.156v-88.562zm92.062 53.156-76.719 44.281v70.875l76.719-44.312v-70.844zm-92.062 53.156-92.063 53.125v70.875l92.063-53.156v-70.844z"/>
      <path id="path3808" style="fill:#cc0000" d="m1626.4 2079.9 276.17 318.9 490.98-283.46-276.17-318.9-490.98 283.46z"/>
      <path id="path3812" style="fill:#a40000" d="m1350.2 2079.9h276.17l490.98-283.46h-276.17l-490.98 283.46z"/>
      <path id="path3818" style="fill:#8f5902" d="m1565 2522.8v-265.75l122.74 70.866v265.75l-122.74-70.866z"/>
      <path id="path3834" style="fill:#babdb6" d="m2332.6 2150.9-0.4475 17.568-153.43 88.583v-17.717l153.88-88.434z"/>
      <path id="path3836" style="fill:#204a87" d="m2178.7 2257.1v-17.717l-76.715 44.291v17.716l76.715-44.291z"/>
      <path id="path3838" style="fill:#babdb6" d="m2102 2301.4-15.343 8.8583v-17.717l15.343-8.8582v17.716z"/>
      <path id="path3840" style="fill:#204a87" d="m1994.6 2363.4v-17.717l92.058-53.15v17.717l-92.058 53.15z"/>
      <path id="path3842" style="fill:#babdb6" d="m1994.6 2345.7-92.058 53.15-61.372-70.866v124.02l153.43-88.583v-17.717z"/>
    </g>
  </g>
  <metadata>
    <rdf:RDF>
      <cc:Work>
        <dc:format>image/svg+xml</dc:format>
        <dc:type rdf:resource="http://purl.org/dc/dcmitype/StillImage"/>
        <cc:license rdf:resource="http://creativecommons.org/licenses/publicdomain/"/>
        <dc:publisher>
          <cc:Agent rdf:about="http://openclipart.org/">
            <dc:title>Openclipart</dc:title>
          </cc:Agent>
        </dc:publisher>
        <dc:title>CM Isometric Home</dc:title>
        <dc:date>2010-07-27T05:08:33</dc:date>
        <dc:description>Part of the Coffeemachine's Isometric Set</dc:description>
        <dc:source>https://openclipart.org/detail/74803/cm-isometric-home-by-depizol</dc:source>
        <dc:creator>
          <cc:Agent>
            <dc:title>depizol</dc:title>
          </cc:Agent>
        </dc:creator>
        <dc:subject>
          <rdf:Bag>
            <rdf:li>icon</rdf:li>
            <rdf:li>isometric</rdf:li>
            <rdf:li>isometric projection</rdf:li>
          </rdf:Bag>
        </dc:subject>
      </cc:Work>
      <cc:License rdf:about="http://creativecommons.org/licenses/publicdomain/">
        <cc:permits rdf:resource="http://creativecommons.org/ns#Reproduction"/>
        <cc:permits rdf:resource="http://creativecommons.org/ns#Distribution"/>
        <cc:permits rdf:resource="http://creativecommons.org/ns#DerivativeWorks"/>
      </cc:License>
    </rdf:RDF>
  </metadata>
</svg>
